<?xml version="1.0" standalone="no"?><!DOCTYPE svg PUBLIC "-//W3C//DTD SVG 1.1//EN" "http://www.w3.org/Graphics/SVG/1.1/DTD/svg11.dtd"><svg class="icon" width="200px" height="200.00px" viewBox="0 0 1024 1024" version="1.1" xmlns="http://www.w3.org/2000/svg"><path fill="#ffffff" d="M593.92 986.763636c-35.374545 0-64.232727-28.858182-64.232727-64.232727v-328.610909c0-35.374545 28.858182-64.232727 64.232727-64.232727h328.610909c35.374545 0 64.232727 28.858182 64.232727 64.232727v328.610909c0 35.374545-28.858182 64.232727-64.232727 64.232727h-328.610909z m319.301818-73.541818v-309.992727h-309.992727v309.992727h309.992727zM101.469091 986.763636C66.094545 986.763636 37.236364 957.905455 37.236364 922.530909v-328.610909c0-35.374545 28.858182-64.232727 64.232727-64.232727h328.610909c35.374545 0 64.232727 28.858182 64.232727 64.232727v328.610909c0 35.374545-28.858182 64.232727-64.232727 64.232727H101.469091z m319.301818-73.541818v-309.992727H110.778182v309.992727h309.992727z m173.149091-419.374545c-35.374545 0-64.232727-28.858182-64.232727-64.232728V101.469091c0-35.374545 28.858182-64.232727 64.232727-64.232727h328.610909c35.374545 0 64.232727 28.858182 64.232727 64.232727v328.610909c0 35.374545-28.858182 64.232727-64.232727 64.232727h-328.610909z m319.301818-73.076364V110.778182h-309.992727v309.992727h309.992727zM101.469091 493.847273C66.094545 493.847273 37.236364 464.989091 37.236364 430.08V101.469091C37.236364 66.094545 66.094545 37.236364 101.469091 37.236364h328.610909c35.374545 0 64.232727 28.858182 64.232727 64.232727v328.610909c0 35.374545-28.858182 64.232727-64.232727 64.232727H101.469091z m319.301818-73.076364V110.778182H110.778182v309.992727h309.992727z"  /><path fill="#ffffff" d="M101.469091 593.92v328.610909h328.610909v-328.610909H101.469091z m0-54.458182h328.610909c30.254545 0 54.923636 24.669091 54.923636 54.923637v328.610909c0 30.254545-24.669091 54.923636-54.923636 54.923636H101.469091c-30.254545 0-54.923636-24.669091-54.923636-54.923636v-328.610909c0-30.72 24.669091-54.923636 54.923636-54.923637z m0-437.992727v328.610909h328.610909V101.469091H101.469091z m0-54.923636h328.610909c30.254545 0 54.923636 24.669091 54.923636 54.923636v328.610909c0 30.254545-24.669091 54.923636-54.923636 54.923636H101.469091c-30.254545 0-54.923636-24.669091-54.923636-54.923636V101.469091C46.545455 71.214545 71.214545 46.545455 101.469091 46.545455z m492.450909 547.374545v328.610909h328.610909v-328.610909h-328.610909z m0-54.458182h328.610909c30.254545 0 54.923636 24.669091 54.923636 54.923637v328.610909c0 30.254545-24.669091 54.923636-54.923636 54.923636h-328.610909c-30.254545 0-54.923636-24.669091-54.923636-54.923636v-328.610909c0.465455-30.72 24.669091-54.923636 54.923636-54.923637z m0-437.992727v328.610909h328.610909V101.469091h-328.610909z m0-54.923636h328.610909c30.254545 0 54.923636 24.669091 54.923636 54.923636v328.610909c0 30.254545-24.669091 54.923636-54.923636 54.923636h-328.610909c-30.254545 0-54.923636-24.669091-54.923636-54.923636V101.469091c0.465455-30.254545 24.669091-54.923636 54.923636-54.923636z"  /></svg>