<?xml version="1.0" standalone="no"?><!DOCTYPE svg PUBLIC "-//W3C//DTD SVG 1.1//EN" "http://www.w3.org/Graphics/SVG/1.1/DTD/svg11.dtd"><svg class="icon" width="200px" height="200.00px" viewBox="0 0 1024 1024" version="1.1" xmlns="http://www.w3.org/2000/svg"><path fill="#ff5777" d="M1011.968 479.488L563.2 36.096a62.464 62.464 0 0 0-13.824-10.496A67.84 67.84 0 0 0 512 12.8a66.304 66.304 0 0 0-38.4 12.8 56.32 56.32 0 0 0-13.568 12.288L11.776 479.488a39.936 39.936 0 0 0 0 56.576c14.336 14.08 34.816 9.984 54.528-9.216l30.208-29.952L513.28 93.184l2.56 2.56 441.856 435.2a69.888 69.888 0 0 0 35.584 13.824 25.6 25.6 0 0 0 18.688-7.936 39.424 39.424 0 0 0 12.032-28.16 38.4 38.4 0 0 0-12.032-28.416z m0 0"  /><path fill="#ff5777" d="M844.8 456.448a34.048 34.048 0 0 0-33.792 33.28v413.696a41.472 41.472 0 0 1-41.472 40.96H665.6v-230.4a102.4 102.4 0 0 0-103.936-102.4H460.8a102.4 102.4 0 0 0-103.936 102.4v230.4H256a41.216 41.216 0 0 1-41.472-40.96V489.984a33.792 33.792 0 0 0-67.584 0v418.304a102.4 102.4 0 0 0 103.936 102.4h175.616v-291.84a41.216 41.216 0 0 1 41.472-40.96h90.624a41.216 41.216 0 0 1 41.472 40.96V1011.2h175.616a102.4 102.4 0 0 0 103.936-102.4V489.728a34.048 34.048 0 0 0-34.816-33.28z m0 0"  /></svg>